<?xml version="1.0" encoding="UTF-8"?>
<svg version="1.1" xmlns="http://www.w3.org/2000/svg" width="512" height="512">
<path d="M0 0 C1.36842064 0.27064603 2.73710269 0.53997303 4.10601807 0.80810547 C7.76957027 1.52979598 11.42904931 2.27037759 15.08790779 3.01545238 C18.94186322 3.7974489 22.79898015 4.56356573 26.65563965 5.33209229 C33.11963192 6.6227406 39.58104702 7.92569859 46.04101562 9.23632812 C53.49064141 10.74759628 60.94393396 12.23957312 68.39948511 13.72131133 C75.60766627 15.15430619 82.8131619 16.60038513 90.01750183 18.0525589 C93.06910311 18.66746411 96.12154211 19.27792698 99.17475891 19.884758 C102.76891032 20.59975228 106.36054986 21.32626469 109.95061493 22.06149292 C111.88447083 22.45478757 113.82059341 22.83688571 115.7567749 23.21856689 C132.27627655 26.6347415 132.27627655 26.6347415 137.4259342 34.20900691 C139.62147719 39.06352932 139.13710525 44.4012789 139.08717346 49.63282776 C139.09222228 50.97516274 139.0994537 52.31749098 139.10867161 53.65980381 C139.12757362 57.33814388 139.11537235 61.01581771 139.09794867 64.69414079 C139.08456663 68.66489355 139.10001467 72.63554935 139.11177063 76.60629272 C139.13014489 84.38060166 139.12163662 92.15465918 139.10368241 99.92896027 C139.08965489 106.24693352 139.08576393 112.56483853 139.08912468 118.88282585 C139.08984084 120.23179331 139.08984084 120.23179331 139.09057147 121.60801263 C139.09159781 123.43495252 139.09265316 125.26189239 139.09373724 127.08883225 C139.10230374 143.24148209 139.08563039 159.39401056 139.0559082 175.54663086 C139.02706613 191.22116188 139.01998959 206.89551808 139.03540039 222.57006836 C139.0521594 239.63927752 139.0562002 256.70840369 139.03869003 273.77761501 C139.03684564 275.59751601 139.03501091 277.41741702 139.03318596 279.23731804 C139.03227387 280.13274469 139.03136178 281.02817134 139.03042205 281.95073213 C139.02481516 288.26185753 139.02812522 294.57294242 139.03473091 300.88406563 C139.04246034 308.57408947 139.03572548 316.26394119 139.01055587 323.95393033 C138.99805225 327.87774954 138.99192465 331.80130067 139.00309753 335.72513008 C139.01313223 339.31703559 139.00469744 342.90840627 138.98151635 346.50024664 C138.97390757 348.41517399 138.98591771 350.33014824 138.99862009 352.24504858 C138.93691233 358.61111986 138.83854584 362.70409213 134.45898438 367.49316406 C128.39353448 372.83653659 124.35938723 372.93915214 116.45898438 372.49316406 C112.05460844 371.8950733 107.72323212 371.02326982 103.37182617 370.12231445 C102.11189346 369.87032791 100.85196075 369.61834137 99.55384827 369.35871887 C96.13076384 368.67388105 92.71042929 367.97613617 89.29045844 367.27593923 C85.69673668 366.542586 82.10054116 365.82156889 78.5045929 365.09922791 C71.70343768 363.73115524 64.90447815 362.35248484 58.10628873 360.96975845 C49.62602967 359.24540467 41.14315128 357.53407654 32.66015625 355.82324219 C29.68502566 355.22318633 26.70990988 354.6230572 23.7348175 354.02281189 C22.65354362 353.80466415 22.65354362 353.80466415 21.55042583 353.58210939 C16.59204473 352.5813538 11.63445473 351.57674165 6.6771698 350.5705719 C5.34831805 350.30112455 4.01946076 350.03170456 2.69059753 349.76231384 C0.23798604 349.26492157 -2.21446356 348.76673008 -4.66671753 348.26757812 C-6.29600441 347.93736412 -6.29600441 347.93736412 -7.95820618 347.60047913 C-9.36647659 347.3142624 -9.36647659 347.3142624 -10.80319691 347.02226353 C-26.96204895 343.89947095 -38.89406046 348.42556631 -54.15039062 353.95800781 C-55.33123734 354.38365021 -56.51208405 354.8092926 -57.72871399 355.24783325 C-60.92049744 356.39941196 -64.11120899 357.55386405 -67.30134964 358.70998001 C-69.30959691 359.43739446 -71.31828414 360.16358072 -73.32711792 360.88937378 C-93.11294725 368.03846909 -112.86744129 375.27038317 -132.60351562 382.55566406 C-134.97883836 383.4322992 -137.35416385 384.30892689 -139.72949219 385.18554688 C-140.87982941 385.61009155 -142.03016663 386.03463623 -143.21536255 386.4720459 C-167.79596095 395.54303722 -167.79596095 395.54303722 -178.24313354 399.34347534 C-179.74429493 399.89039435 -181.24475576 400.43924112 -182.74441528 400.99026489 C-200.96143583 407.68021458 -215.96355292 408.9293686 -235.08203125 404.98632812 C-236.45045189 404.71568209 -237.81913394 404.4463551 -239.18804932 404.17822266 C-242.85160152 403.45653214 -246.51108056 402.71595054 -250.16993904 401.97087574 C-254.02389447 401.18887922 -257.8810114 400.42276239 -261.7376709 399.65423584 C-268.20166317 398.36358752 -274.66307827 397.06062953 -281.12304688 395.75 C-288.57267266 394.23873184 -296.02596521 392.746755 -303.48151636 391.26501679 C-310.68969752 389.83202193 -317.89519315 388.385943 -325.09953308 386.93376923 C-328.15113436 386.31886401 -331.20357336 385.70840115 -334.25679016 385.10157013 C-337.85094157 384.38657584 -341.44258111 383.66006343 -345.03264618 382.92483521 C-346.96650208 382.53154055 -348.90262466 382.14944241 -350.83880615 381.76776123 C-367.3583078 378.35158662 -367.3583078 378.35158662 -372.50796545 370.77732122 C-374.70350844 365.92279881 -374.2191365 360.58504923 -374.16920471 355.35350037 C-374.17425353 354.01116538 -374.18148495 352.66883714 -374.19070286 351.32652432 C-374.20960487 347.64818425 -374.1974036 343.97051042 -374.17997992 340.29218733 C-374.16659788 336.32143458 -374.18204592 332.35077877 -374.19380188 328.3800354 C-374.21217614 320.60572646 -374.20366787 312.83166894 -374.18571366 305.05736785 C-374.17168614 298.73939461 -374.16779518 292.4214896 -374.17115593 286.10350227 C-374.17163337 285.20419064 -374.17211081 284.304879 -374.17260272 283.3783155 C-374.17362906 281.55137561 -374.17468441 279.72443573 -374.17576849 277.89749587 C-374.18433499 261.74484604 -374.16766164 245.59231757 -374.13793945 229.43969727 C-374.10909738 213.76516625 -374.10202084 198.09081005 -374.11743164 182.41625977 C-374.13419065 165.3470506 -374.13823145 148.27792443 -374.12072128 131.20871311 C-374.11887689 129.38881211 -374.11704216 127.56891111 -374.11521721 125.74901009 C-374.11430512 124.85358344 -374.11339303 123.95815679 -374.1124533 123.03559599 C-374.10684641 116.7244706 -374.11015647 110.4133857 -374.11676216 104.1022625 C-374.12449159 96.41223866 -374.11775673 88.72238694 -374.09258712 81.0323978 C-374.0800835 77.10857859 -374.0739559 73.18502746 -374.08512878 69.26119804 C-374.09516348 65.66929254 -374.08672869 62.07792186 -374.0635476 58.48608149 C-374.05593882 56.57115414 -374.06794896 54.65617988 -374.08065134 52.74127954 C-374.01894358 46.37520827 -373.92057709 42.28223599 -369.54101562 37.49316406 C-363.47556573 32.14979153 -359.44141848 32.04717598 -351.54101562 32.49316406 C-347.13663969 33.09125483 -342.80526337 33.9630583 -338.45385742 34.86401367 C-337.19392471 35.11600021 -335.933992 35.36798676 -334.63587952 35.62760925 C-331.21279509 36.31244708 -327.79246054 37.01019195 -324.37248969 37.7103889 C-320.77876793 38.44374212 -317.18257241 39.16475923 -313.58662415 39.88710022 C-306.78546893 41.25517288 -299.9865094 42.63384328 -293.18831998 44.01656967 C-284.70806092 45.74092346 -276.22518253 47.45225158 -267.7421875 49.16308594 C-264.76705691 49.76314179 -261.79194113 50.36327092 -258.81684875 50.96351624 C-258.0959995 51.10894806 -257.37515025 51.25437988 -256.63245708 51.40421873 C-251.67407598 52.40497433 -246.71648598 53.40958648 -241.75920105 54.41575623 C-240.4303493 54.68520357 -239.10149201 54.95462357 -237.77262878 55.22401428 C-235.32001729 55.72140656 -232.86756769 56.21959805 -230.41531372 56.71875 C-229.32912247 56.93889267 -228.24293121 57.15903534 -227.12382507 57.385849 C-226.18497813 57.57666015 -225.24613119 57.76747129 -224.27883434 57.9640646 C-208.1199823 61.08685717 -196.18797079 56.56076181 -180.93164062 51.02832031 C-179.75079391 50.60267792 -178.5699472 50.17703552 -177.35331726 49.73849487 C-174.16153381 48.58691616 -170.97082226 47.43246408 -167.78068161 46.27634811 C-165.77243434 45.54893367 -163.76374711 44.8227474 -161.75491333 44.09695435 C-141.969084 36.94785903 -122.21458996 29.71594495 -102.47851562 22.43066406 C-100.10319289 21.55402892 -97.7278674 20.67740123 -95.35253906 19.80078125 C-94.20220184 19.37623657 -93.05186462 18.95169189 -91.8666687 18.51428223 C-67.2860703 9.44329091 -67.2860703 9.44329091 -56.83889771 5.64285278 C-55.33773632 5.09593378 -53.83727549 4.54708701 -52.33761597 3.99606323 C-34.12059542 -2.69388646 -19.11847833 -3.94304047 0 0 Z " fill="#00C3FE" transform="translate(373.541015625,53.5068359375)"/>
<path d="M0 0 C1.36842064 0.27064603 2.73710269 0.53997303 4.10601807 0.80810547 C7.76957027 1.52979598 11.42904931 2.27037759 15.08790779 3.01545238 C18.94186322 3.7974489 22.79898015 4.56356573 26.65563965 5.33209229 C33.11963192 6.6227406 39.58104702 7.92569859 46.04101562 9.23632812 C53.49064141 10.74759628 60.94393396 12.23957312 68.39948511 13.72131133 C75.60766627 15.15430619 82.8131619 16.60038513 90.01750183 18.0525589 C93.06910311 18.66746411 96.12154211 19.27792698 99.17475891 19.884758 C102.76891032 20.59975228 106.36054986 21.32626469 109.95061493 22.06149292 C111.88447083 22.45478757 113.82059341 22.83688571 115.7567749 23.21856689 C124.65950962 25.059621 132.10652399 26.62610721 137.42757881 34.42837226 C139.3054353 38.18769141 139.12932776 41.89967108 139.06025696 46.02867126 C139.06666514 47.44034296 139.06666514 47.44034296 139.07320279 48.88053328 C139.08141765 52.02395336 139.05397194 55.16602968 139.02661133 58.30932617 C139.02520054 60.56648731 139.02599344 62.82365074 139.02882385 65.08081055 C139.03025818 71.20230294 139.00086492 77.32330527 138.96595407 83.44468379 C138.93469379 89.84416515 138.93176006 96.2436578 138.92582703 102.64320374 C138.9120531 113.38243696 138.88082407 124.12145602 138.83618164 134.8605957 C138.7902565 145.91983139 138.75487911 156.97901824 138.73364258 168.03833008 C138.73232896 168.720513 138.73101534 169.40269592 138.72966192 170.10555106 C138.72313653 173.52800863 138.71681804 176.95046654 138.7106024 180.37292469 C138.65880483 208.74646143 138.57039787 237.1198031 138.45898438 265.49316406 C131.50054803 268.4416916 123.81950424 269.06199679 116.60351562 266.46582031 C105.09871899 260.02670158 97.63329939 247.66592886 89.84179688 237.35253906 C80.06119521 225.08534375 66.34458464 221.27740729 51.49414062 219.07128906 C44.15090741 217.87993934 36.93671972 216.12859587 32.08398438 210.05566406 C31.6225 209.50007812 31.16101563 208.94449219 30.68554688 208.37207031 C27.59759673 203.64180273 27.10579857 199.29550524 27.14648438 193.74316406 C27.14777344 192.99437988 27.1490625 192.2455957 27.15039062 191.47412109 C27.23725483 186.28724232 27.90600288 181.43762252 28.95898438 176.36816406 C30.37083318 169.4015003 30.82380394 162.59881194 30.89648438 155.49316406 C30.92935547 154.06012939 30.92935547 154.06012939 30.96289062 152.59814453 C30.94451967 146.03167459 29.59283855 141.2448652 26.45898438 135.49316406 C26.02457031 134.66945312 25.59015625 133.84574219 25.14257812 132.99707031 C10.65724337 110.42900959 -19.38122686 99.34271867 -43.00585938 89.28222656 C-43.63054108 89.01617615 -44.25522278 88.75012573 -44.89883423 88.47601318 C-47.91861897 87.19384204 -50.94320203 85.92668524 -53.9765625 84.67675781 C-70.13302907 77.93466714 -82.19615059 69.86741452 -89.47851562 53.43066406 C-93.33823426 42.60555914 -93.01371607 31.06169021 -88.51367188 20.49707031 C-86.74902365 16.86146974 -86.10384607 16.12983793 -82.25585938 14.73730469 C-81.34400879 14.40355835 -80.4321582 14.06981201 -79.49267578 13.72595215 C-78.49800293 13.37069458 -77.50333008 13.01543701 -76.47851562 12.64941406 C-75.45806152 12.27965454 -74.43760742 11.90989502 -73.38623047 11.52893066 C-71.2185478 10.74543987 -69.0495582 9.96555716 -66.87939453 9.18896484 C-63.57947607 8.00694052 -60.28463959 6.81154952 -56.99023438 5.61425781 C-54.88245409 4.85433109 -52.77438969 4.09519184 -50.66601562 3.33691406 C-49.68753662 2.98165649 -48.70905762 2.62639893 -47.70092773 2.26037598 C-31.43744209 -3.53203132 -16.85644043 -3.47651239 0 0 Z " fill="#9FD655" transform="translate(373.541015625,53.5068359375)"/>
<path d="M0 0 C1.87303299 0.37557037 1.87303299 0.37557037 3.78390503 0.75872803 C7.17852572 1.43956747 10.5703976 2.13328025 13.96193075 2.8293128 C17.53363854 3.55978214 21.10789472 4.27756119 24.68191528 4.99661255 C31.44990956 6.36011378 38.21577183 7.7338882 44.9808284 9.11188328 C57.07582932 11.57513174 69.17469257 14.01932171 81.27386487 16.46198571 C85.50851745 17.31730833 89.74233999 18.17659407 93.97546744 19.03943229 C95.98160883 19.44799052 97.98801783 19.85520515 99.99453735 20.26190186 C102.42306903 20.75429188 104.85116327 21.24884746 107.27868652 21.7461853 C114.85180928 23.27708207 122.36864921 24.46728467 130.02392578 25.64501953 C130.02392578 38.18501953 130.02392578 50.72501953 130.02392578 63.64501953 C127.05392578 64.63501953 124.08392578 65.62501953 121.02392578 66.64501953 C108.41529602 71.58025693 98.67972035 78.41338543 92.78564453 90.84814453 C89.85254672 97.76724707 89.87343232 106.38538764 91.82470703 113.60986328 C95.42543811 121.64035975 101.77445024 126.3805947 109.64892578 129.95751953 C116.49953598 132.27639733 116.49953598 132.27639733 130.02392578 133.64501953 C130.02392578 194.36501953 130.02392578 255.08501953 130.02392578 317.64501953 C108.02392578 317.64501953 108.02392578 317.64501953 100.02392578 313.64501953 C96.20872991 309.82982366 95.7816688 306.786889 95.71142578 301.58251953 C95.78120698 298.72883588 95.93060352 296.08429033 96.52392578 293.29150391 C100.38311039 272.86496036 95.6030191 253.86429735 84.14501953 236.85595703 C76.88442199 227.14582456 67.40448109 221.43853797 56.02392578 217.64501953 C54.66298286 217.55375043 53.2980802 217.51436501 51.93408203 217.51220703 C51.1496875 217.51091797 50.36529297 217.50962891 49.55712891 217.50830078 C48.74179688 217.51216797 47.92646484 217.51603516 47.08642578 217.52001953 C46.27496094 217.51615234 45.46349609 217.51228516 44.62744141 217.50830078 C43.44891602 217.51023437 43.44891602 217.51023437 42.24658203 217.51220703 C41.53252197 217.51333496 40.81846191 217.51446289 40.08276367 217.515625 C37.95096524 217.64960498 36.08115509 218.08685446 34.02392578 218.64501953 C26.26751165 219.59756162 20.4787244 218.04144216 14.02392578 213.64501953 C4.2415543 205.40385319 1.01147632 190.74617487 -1.90185547 178.87158203 C-5.13270661 165.76203791 -9.5020287 155.4683156 -20.97607422 147.64501953 C-23.39054127 146.64117505 -25.84180529 145.72193876 -28.31982422 144.88720703 C-28.96274414 144.66734131 -29.60566406 144.44747559 -30.26806641 144.22094727 C-31.83438559 143.68671015 -33.4048256 143.16457979 -34.97607422 142.64501953 C-35.0695508 125.2772519 -35.14006963 107.90956288 -35.18332291 90.54160118 C-35.20394073 82.4771928 -35.23204629 74.41294081 -35.27783203 66.34863281 C-35.31772383 59.3190763 -35.34351271 52.28963305 -35.3524282 45.25996649 C-35.35763904 41.53838619 -35.36986971 37.8171299 -35.39899445 34.09565353 C-35.43125839 29.93927438 -35.43203213 25.78345712 -35.43017578 21.62695312 C-35.44455688 20.39552582 -35.45893799 19.16409851 -35.47375488 17.89535522 C-35.44288625 11.51945685 -35.36522755 7.4400231 -30.97607422 2.64501953 C-21.80690038 -5.43258599 -11.17191731 -2.31996181 0 0 Z " fill="#00AAEF" transform="translate(34.97607421875,88.35498046875)"/>
<path d="M0 0 C21.54826811 8.97844505 45.78502255 20.50371198 56.125 42.87109375 C60.57198307 53.69076239 58.8303688 68.61043023 56.5 79.875 C54.50385478 89.59408972 52.08305714 102.67596357 57.74609375 111.49609375 C64.72689028 119.86870018 74.08687373 121.15135132 84.3125 122.8125 C106.08315549 126.70365249 116.72921283 139.27713461 129.34765625 156.13671875 C134.02836711 162.18779646 138.57497899 167.49071312 146 170 C152.50217179 170.71139735 158.61681671 170.33409276 165 169 C165.09270374 181.41315692 165.16376717 193.82623141 165.20724869 206.23966408 C165.22811827 212.00381325 165.25642495 217.76772547 165.30175781 223.53173828 C165.34523722 229.09493716 165.36914184 234.6579082 165.37950897 240.22126389 C165.38689652 242.34314943 165.40132266 244.46502258 165.42292023 246.58681107 C165.45198155 249.56026348 165.45595479 252.53277594 165.45410156 255.50634766 C165.46848267 256.3824469 165.48286377 257.25854614 165.49768066 258.16119385 C165.46100463 263.60395695 164.6168583 266.67948182 161 271 C154.93486013 276.34309941 150.89975781 276.44448045 143 276 C138.63247891 275.40711629 134.33835279 274.54095401 130.02392578 273.64501953 C128.77523712 273.39463928 127.52654846 273.14425903 126.24002075 272.8862915 C122.84540006 272.20545206 119.45352818 271.51173928 116.06199503 270.81570673 C112.49028724 270.08523739 108.91603107 269.36745834 105.3420105 268.64840698 C98.57401622 267.28490575 91.80815396 265.91113133 85.04309738 264.53313625 C72.94809646 262.06988779 60.84923321 259.62569782 48.75006092 257.18303382 C44.51540833 256.3277112 40.28158579 255.46842546 36.04845834 254.60558724 C34.04231695 254.19702901 32.03590796 253.78981438 30.02938843 253.38311768 C27.60085675 252.89072765 25.17276251 252.39617207 22.74523926 251.89883423 C15.1721165 250.36793746 7.65527657 249.17773486 0 248 C0 166.16 0 84.32 0 0 Z " fill="#00AAEF" transform="translate(347,150)"/>
<path d="M0 0 C11.4328705 1.83331598 19.72202711 7.02800525 26.7890625 16.36328125 C30.65108421 22.73066576 32.34370193 29.50110829 34.10888672 36.65527344 C39.01209303 56.86864224 39.01209303 56.86864224 52.1875 72 C56.13999388 74.24520362 59.38860842 75.13868088 63.9375 75.125 C64.79214844 75.12757813 65.64679688 75.13015625 66.52734375 75.1328125 C68.92813343 75.0858275 68.92813343 75.0858275 70.90600586 74.5065918 C82.07610344 71.80425386 93.69126781 73.63389976 103.38671875 79.42578125 C118.74928022 89.25274206 127.73142175 103.46077052 132.38916016 120.96337891 C133.42280157 126.1018409 133.35456372 131.15334908 133.25 136.375 C133.24484375 137.42816406 133.2396875 138.48132813 133.234375 139.56640625 C133.18735399 144.20385316 132.97189651 148.4580257 132 153 C131.54324884 158.56337884 131.29572572 163.39425465 133.5625 168.5625 C137.54082801 172.54082801 141.73478037 174.15395055 147.27612305 174.29296875 C148.85491274 174.27242527 150.43355711 174.23653828 152.01171875 174.1875 C152.86119583 174.17614014 153.71067291 174.16478027 154.58589172 174.15307617 C158.18762636 174.10452097 161.78829995 174.02047514 165.3894043 173.93847656 C182.49413608 173.58306976 198.55759083 174.81855848 211.8125 187.0625 C218.09313095 193.82449317 223.25398652 201.61556551 223 211 C214.26326429 214.75567666 205.42518177 218.14576795 196.48999023 221.39428711 C194.30288827 222.19100135 192.11922968 222.99670319 189.93554688 223.80273438 C172.09784928 230.34500636 157.16658425 231.35146398 138.45898438 227.49316406 C137.09056374 227.22251803 135.72188168 226.95319103 134.35296631 226.68505859 C130.6894141 225.96336808 127.02993506 225.22278647 123.37107658 224.47771168 C119.51712115 223.69571516 115.66000422 222.92959833 111.80334473 222.16107178 C105.33935245 220.87042346 98.87793735 219.56746547 92.41796875 218.25683594 C84.96834296 216.74556778 77.51505041 215.25359094 70.05949926 213.77185273 C62.85131811 212.33885787 55.64582247 210.89277893 48.44148254 209.44060516 C45.38988126 208.82569995 42.33744227 208.21523709 39.28422546 207.60840607 C35.69007405 206.89341178 32.09843451 206.16689937 28.50836945 205.43167114 C26.57451355 205.03837649 24.63839097 204.65627835 22.70220947 204.27459717 C13.69158671 202.4112322 6.40340456 200.84413373 1.03140557 192.97698319 C-0.66792963 189.71972219 -0.67341037 186.48711812 -0.60127258 182.90711975 C-0.60554471 182.12118028 -0.60981683 181.3352408 -0.61421841 180.52548498 C-0.62241657 177.90710582 -0.59501774 175.29034924 -0.56762695 172.67211914 C-0.56621579 170.78933754 -0.5670098 168.90655319 -0.56983948 167.02377319 C-0.57127236 161.92286862 -0.54190297 156.82255353 -0.50696969 151.72178578 C-0.4756851 146.38734387 -0.47277378 141.05288802 -0.46684265 135.71836853 C-0.45131043 125.62137923 -0.41029021 115.52466105 -0.3600952 105.42779106 C-0.30418254 93.93090877 -0.27671037 82.43401344 -0.25161803 70.937029 C-0.19937395 47.29120244 -0.11144357 23.64561642 0 0 Z " fill="#9FD655" transform="translate(0,231)"/>
<path d="M0 0 C13.3402238 11.24447867 23.7233585 24.37606486 25.9609375 42.16015625 C26.23267502 48.31670948 25.24632819 53.1525925 21.5859375 58.1796875 C16.6746498 62.96504474 11.99434901 64.46801858 5.2109375 64.4921875 C-2.36954702 64.35544821 -7.15928939 62.82156131 -13 57.71484375 C-15.18909067 55.33828951 -16.75373235 52.65733964 -18.3359375 49.8515625 C-19.31947956 48.01476193 -19.31947956 48.01476193 -21.4140625 47.1796875 C-26.72769126 46.66876166 -30.75349849 47.47657563 -35.8515625 49.0546875 C-53.2145145 54.2914281 -73.45128772 56.26590053 -90.015625 47.859375 C-96.84855673 43.67734655 -101.95873144 37.87898355 -104.4140625 30.1796875 C-105.58261788 18.16802524 -103.63726229 9.56598624 -96.1015625 0.08984375 C-71.86772583 -27.34151304 -26.3887442 -20.36608787 0 0 Z " fill="#B2E56E" transform="translate(229.4140625,168.8203125)"/>
<path d="M0 0 C9.31001725 6.21062142 17.88780681 14.92930126 21 26 C21.44300596 29.86243568 21.46473299 33.67808577 21.4375 37.5625 C21.45748047 38.57763672 21.47746094 39.59277344 21.49804688 40.63867188 C21.49405042 46.75725064 21.08521713 50.35465256 17 55 C10.93406407 60.3438007 6.89542212 60.41474076 -1 60 C-4.95527367 59.48546157 -8.83753253 58.71422889 -12.74194336 57.90454102 C-14.41720596 57.57045227 -14.41720596 57.57045227 -16.12631226 57.22961426 C-19.78293011 56.49778159 -23.43631935 55.75101521 -27.08984375 55.00390625 C-29.6426872 54.48973752 -32.19571464 53.9764815 -34.74891663 53.46409607 C-40.08182656 52.39238866 -45.41315825 51.31312818 -50.7434082 50.22827148 C-58.25691738 48.69906204 -65.77303007 47.18298165 -73.28978145 45.66980088 C-83.91618079 43.52999408 -94.54125622 41.38363134 -105.16381836 39.22485352 C-106.20749069 39.01338181 -107.25116302 38.8019101 -108.32646179 38.58403015 C-109.28369141 38.38912994 -110.24092102 38.19422974 -111.22715759 37.99342346 C-112.05723296 37.82473535 -112.88730833 37.65604723 -113.7425375 37.48224735 C-115.84220001 37.03370981 -117.92088556 36.53503471 -120 36 C-120.85076699 27.1520233 -117.66488184 18.92485229 -112.125 12 C-107.14980295 6.91286102 -103.59818963 4.84811003 -96.4074707 4.58178711 C-89.5702274 4.51884081 -83.65920874 5.44171819 -77.06640625 7.31640625 C-62.53191212 10.5565801 -52.08787589 6.10218537 -39.99584961 -1.18164062 C-26.71694455 -9.10433265 -13.04429983 -7.50472766 0 0 Z " fill="#9DD657" transform="translate(491,366)"/>
<path d="M0 0 C0 32.01 0 64.02 0 97 C-4.56824335 96.08635133 -8.39233315 94.69161973 -12.609375 92.83203125 C-13.33562073 92.51473557 -14.06186646 92.19743988 -14.81011963 91.87052917 C-16.34428404 91.19811076 -17.87728332 90.52302853 -19.40917969 89.84545898 C-21.72429122 88.82384479 -24.04536037 87.81678709 -26.3671875 86.81054688 C-34.04456535 83.44839163 -41.24865528 80.04161504 -48 75 C-48.86625 74.4225 -49.7325 73.845 -50.625 73.25 C-59.38583536 64.95026124 -65.02075868 53.66526816 -65.53955078 41.58251953 C-65.62996953 32.8850053 -63.90678147 25.81356295 -60 18 C-58.12236023 17.12083435 -58.12236023 17.12083435 -55.63549805 16.22827148 C-54.707509 15.89129745 -53.77951996 15.55432343 -52.82341003 15.20713806 C-51.81305191 14.84874344 -50.80269379 14.49034882 -49.76171875 14.12109375 C-48.72940628 13.74896255 -47.69709381 13.37683136 -46.63349915 12.99342346 C-44.44478101 12.20587333 -42.25481369 11.4217877 -40.0637207 10.64086914 C-36.7097973 9.44544731 -33.35949268 8.24032752 -30.00976562 7.03320312 C-27.88562151 6.27026278 -25.76127891 5.50787477 -23.63671875 4.74609375 C-22.63243332 4.3856749 -21.62814789 4.02525604 -20.59342957 3.65391541 C-19.65598404 3.32009354 -18.71853851 2.98627167 -17.75268555 2.64233398 C-16.92963425 2.34858383 -16.10658295 2.05483368 -15.2585907 1.75218201 C-9.6503781 -0.11552984 -6.38673557 0 0 0 Z " fill="#B2E56F" transform="translate(347,52)"/>
<path d="M0 0 C32.70384615 0 32.70384615 0 46.0859375 13.03125 C52.51514511 19.81896361 57.17002365 26.46968406 57 36 C48.18003352 39.8024422 39.24571392 43.18662916 30.21533203 46.44921875 C27.97422381 47.25931738 25.73507861 48.07467835 23.49609375 48.890625 C22.06000745 49.41176601 20.6238135 49.93261049 19.1875 50.453125 C18.19218262 50.81558319 18.19218262 50.81558319 17.17675781 51.18536377 C10.64344733 53.53988724 7.32000778 54 0 54 C0 36.18 0 18.36 0 0 Z " fill="#B1E56F" transform="translate(166,406)"/>
<path d="M0 0 C0 22.77 0 45.54 0 69 C-12.07547406 69 -22.69930533 67.19436204 -32 59 C-38.88218876 51.45035759 -40.58196406 44.88481384 -40.3125 34.73046875 C-39.48138745 24.80906269 -33.35343164 16.94332429 -26.25 10.3125 C-18.73052735 4.01512138 -9.83421942 0 0 0 Z " fill="#9FD656" transform="translate(165,153)"/>
<path d="M0 0 C8.21556868 4.84670879 13.11175918 12.0137887 15.64453125 21.12890625 C16.48453777 26.46153193 15.6793819 30.62557948 12.64453125 35.12890625 C7.05129454 41.3436137 0.28518916 44.59383039 -7.98046875 45.546875 C-16.08164202 45.8490357 -22.79999915 45.20062758 -29.35546875 40.12890625 C-32.81277332 35.85811825 -32.86905737 31.32035846 -32.703125 25.99609375 C-31.58851914 16.80372634 -26.3922106 7.88401495 -19.66796875 1.62890625 C-14.09399587 -1.98664373 -6.19133258 -2.28966362 0 0 Z " fill="#B1E56F" transform="translate(238.35546875,275.87109375)"/>
<path d="M0 0 C2.6328125 1.86328125 2.6328125 1.86328125 5.125 4.3125 C7.98424704 7.07822027 10.75614168 9.69043267 14 12 C14.68707031 11.30132812 15.37414062 10.60265625 16.08203125 9.8828125 C16.98308594 8.97273438 17.88414062 8.06265625 18.8125 7.125 C19.70582031 6.22007813 20.59914063 5.31515625 21.51953125 4.3828125 C24.28538237 1.72585315 26.04142327 0.14587037 29.875 -0.4375 C33 0 33 0 35.875 2.0625 C38.58144161 5.80375752 38.58291312 7.45136647 38 12 C36.4790947 14.47423931 34.56830781 16.41238781 32.5 18.4375 C31.97535156 18.97826172 31.45070313 19.51902344 30.91015625 20.07617188 C29.62217176 21.39928322 28.31310556 22.70181609 27 24 C28.38736126 27.15624686 30.00392708 29.19863433 32.5 31.5625 C35.78333385 34.68584089 37.86296915 36.74388391 38.375 41.4375 C38 45 38 45 36.5 47.4375 C33.74731743 49.15792661 31.56242806 49.85928422 28.29296875 49.73046875 C24.08713347 48.39062003 21.28152933 45.21250154 18.19921875 42.1640625 C15.99954073 39.86376496 15.99954073 39.86376496 13 38 C12.38511719 38.62648437 11.77023437 39.25296875 11.13671875 39.8984375 C10.32847656 40.71570313 9.52023437 41.53296875 8.6875 42.375 C7.88699219 43.18710938 7.08648437 43.99921875 6.26171875 44.8359375 C3.0615565 47.89792349 1.54926851 48.94768871 -2.9375 49.375 C-5.89596126 49.28237782 -6.90959845 49.05650097 -9.5 47.4375 C-11.68071663 43.89383548 -11.75331723 42.10900306 -11 38 C-8.96010359 35.02630905 -6.56136427 32.52845595 -4 30 C-2.7934375 28.7625 -2.7934375 28.7625 -1.5625 27.5 C-1.046875 27.005 -0.53125 26.51 0 26 C-1.38736126 22.84375314 -3.00392708 20.80136567 -5.5 18.4375 C-8.7497697 15.34608772 -10.83796424 13.24999014 -11.4375 8.625 C-11 5 -11 5 -8.875 2.0625 C-5.43602867 -0.40458813 -4.14523484 -0.525888 0 0 Z " fill="#FCDB63" transform="translate(449,99)"/>
<path d="M0 0 C2.8125 2.0625 2.8125 2.0625 5 5 C5.48786481 10.60347579 4.37572971 15.37251899 2.8125 20.6875 C2.51762695 21.80608398 2.51762695 21.80608398 2.21679688 22.94726562 C0.8310666 27.72696913 -0.5658041 30.32431103 -5 33 C-8 33.5625 -8 33.5625 -11 33 C-13.875 30.9375 -13.875 30.9375 -16 28 C-16.4497074 22.72557461 -15.46698096 18.31508558 -13.75 13.375 C-13.54503906 12.73304688 -13.34007812 12.09109375 -13.12890625 11.4296875 C-10.86155704 4.72383045 -7.76667365 -1.0837219 0 0 Z " fill="#F8EE85" transform="translate(307,307)"/>
<path d="M0 0 C7.64255623 1.34079934 11.87786102 8.09712822 16.70703125 13.7109375 C18.88487256 17.13129459 19.38750789 19.59545195 19.5625 23.625 C17.58696313 27.41144566 16.2428591 28.39821363 12.1875 29.75 C8.42081333 29.62011425 6.94636663 29.07602681 4.2421875 26.49609375 C1.2076596 23.11577081 -1.65652479 19.60483108 -4.484375 16.05078125 C-6.36610787 13.62484814 -6.36610787 13.62484814 -8.4375 11.625 C-9.06174145 7.61201927 -8.76681492 6.08404505 -6.375 2.75 C-3.4375 0.625 -3.4375 0.625 0 0 Z " fill="#F8DA67" transform="translate(84.4375,208.375)"/>
<path d="M0 0 C4.83218604 0.90603488 7.63151568 3.86479558 10.45703125 7.734375 C11.25123126 8.92108046 12.0362858 10.11395295 12.8125 11.3125 C13.42254883 12.18648438 13.42254883 12.18648438 14.04492188 13.078125 C17.08843794 17.74314458 17.58004792 21.01144136 17 26.5625 C14.9375 29.625 14.9375 29.625 12 31.5625 C8.625 31.9375 8.625 31.9375 5 30.5625 C2.20834828 27.8559967 0.12641314 24.80552277 -2 21.5625 C-2.58523437 20.70140625 -3.17046875 19.8403125 -3.7734375 18.953125 C-6.07627138 15.3853542 -7.82026175 12.42851158 -8.6875 8.25 C-7.45801428 3.44382856 -4.8718029 0.91346304 0 0 Z " fill="#F9DA67" transform="translate(116,248.4375)"/>
<path d="M0 0 C3.14839891 3.51507991 5.70574355 7.40784457 8.25 11.375 C8.95640625 12.45523437 9.6628125 13.53546875 10.390625 14.6484375 C12.21971801 18.45756808 12.458363 20.82491095 12 25 C10 28 10 28 7 30 C2.10044542 30.55317552 2.10044542 30.55317552 -1 29 C-3.87206012 25.97397377 -5.90825958 22.59454422 -8 19 C-8.51046875 18.19046875 -9.0209375 17.3809375 -9.546875 16.546875 C-11.53514782 13.26287382 -12.88959952 10.52189317 -13.6875 6.75 C-12.87367853 3.49471414 -11.49508903 1.83506504 -8.78515625 -0.14453125 C-5.53599179 -1.70157067 -3.31572655 -1.10524218 0 0 Z " fill="#F9DA67" transform="translate(147,294)"/>
<path d="M0 0 C0.66 -0.0103125 1.32 -0.020625 2 -0.03125 C5.02442702 0.77211343 6.17768599 1.97082428 8 4.5 C8.2421875 7.85546875 8.2421875 7.85546875 7.875 11.6875 C7.81151367 12.35442871 7.74802734 13.02135742 7.68261719 13.70849609 C7.4847865 15.64226762 7.24331573 17.57142365 7 19.5 C6.88398438 20.42683594 6.76796875 21.35367188 6.6484375 22.30859375 C5.98288919 26.17790895 5.10043214 28.35652552 2.8125 31.625 C0 33.5 0 33.5 -3.5625 33.625 C-7.70049994 32.27074547 -8.9596146 31.33592455 -11 27.5 C-11.97450649 19.98237849 -10.80060882 8.14785182 -6.140625 2.078125 C-3.84093174 0.3827307 -2.81735872 -0.04402123 0 0 Z " fill="#F8EE84" transform="translate(319,205.5)"/>
<path d="M0 0 C3.51330246 2.87149484 4.84736134 4.03328847 5.5625 8.5625 C4.89684047 12.63041937 4.27243478 13.57442534 1 16 C-1.7283484 16.37868879 -3.97439928 16.52476532 -6.6875 16.4375 C-7.40067383 16.42356201 -8.11384766 16.40962402 -8.84863281 16.39526367 C-15.68301603 16.15672847 -21.31435939 15.30197767 -26.625 10.75 C-28.49095127 7.01809746 -28.17345865 4.96042293 -27 1 C-22.06341598 -5.37642103 -6.70483085 -1.91913637 0 0 Z " fill="#F8EE85" transform="translate(235,365)"/>
<path d="M0 0 C4.08525916 0.96123745 6.03055219 2.82172565 9.0234375 5.6875 C11.18392739 7.8029945 11.18392739 7.8029945 13.6640625 9.75 C19.83773847 14.76733666 19.83773847 14.76733666 21.5 19.4375 C21.10895538 23.58257296 20.35930229 25.05396805 17.1875 27.75 C14.0625 29.0625 14.0625 29.0625 10.1875 28.75 C3.89610094 24.8962652 -4.43641528 18.50216944 -7.8125 11.75 C-8.35285146 7.69736402 -8.15449395 6.21269769 -5.6875 2.875 C-2.8125 0.75 -2.8125 0.75 0 0 Z " fill="#FAEF84" transform="translate(171.8125,334.25)"/>
<path d="M0 0 C1.90625 0.37109375 1.90625 0.37109375 4.40625 1.80859375 C6.67330473 5.68147891 6.23977437 8.98858355 5.90625 13.37109375 C5.86242187 14.29019531 5.81859375 15.20929688 5.7734375 16.15625 C5.41330104 21.84797193 4.6801116 26.35680547 1.90625 31.37109375 C-1.61199511 33.71659049 -2.95150694 33.95100778 -7.09375 33.37109375 C-9.96875 31.62109375 -9.96875 31.62109375 -12.09375 28.37109375 C-13.20905619 20.77091445 -12.42945743 11.68670569 -10.09375 4.37109375 C-6.94710805 0.39072616 -4.88821259 -0.30095339 0 0 Z " fill="#F9EF84" transform="translate(314.09375,256.62890625)"/>
<path d="M0 0 C3.4375 0.5625 3.4375 0.5625 5.875 2.0625 C8.10473664 5.63007862 8.22637 8.54461127 7.4375 12.5625 C6.02402272 16.36594078 4.2793519 19.95048504 2.4375 23.5625 C1.880625 24.738125 1.32375 25.91375 0.75 27.125 C-0.5625 29.5625 -0.5625 29.5625 -2.5625 31.5625 C-6.55364942 31.88436689 -9.33376065 32.09810433 -13 30.5 C-15.35093309 27.58484297 -15.3644343 25.28090332 -15.5625 21.5625 C-14.84239027 18.69297718 -13.69080105 16.11087199 -12.4375 13.4375 C-12.14101563 12.74785156 -11.84453125 12.05820313 -11.5390625 11.34765625 C-9.04380191 5.81790504 -6.39549927 1.00981567 0 0 Z " fill="#F9EF84" transform="translate(334.5625,156.4375)"/>
<path d="M0 0 C2.4375 1.5 2.4375 1.5 4 4 C4.87078652 9.48595506 4.87078652 9.48595506 4 12 C0.05030783 15.76584764 -4.29812711 18.63395183 -9 21.375 C-9.88558594 21.92607422 -9.88558594 21.92607422 -10.7890625 22.48828125 C-13.84388383 24.2713818 -15.72583475 25.01465254 -19.2890625 24.82421875 C-22.68574875 23.79150867 -24.0210651 22.96840234 -26 20 C-27.04227087 15.10934438 -27.04227087 15.10934438 -26 12 C-20.15168187 5.34360044 -9.054373 -1.62978714 0 0 Z " fill="#FCDB63" transform="translate(374,122)"/>
<path d="M0 0 C3.79191211 0.47315158 7.02086517 1.92356385 10.4609375 3.52587891 C11.15445313 3.82623047 11.84796875 4.12658203 12.5625 4.43603516 C16.41957801 6.17245916 19.61696031 7.81053987 22.2109375 11.27587891 C22.69159415 14.80295094 21.80597379 18.15581059 20.1484375 21.27587891 C16.39874061 23.21120633 11.98960565 22.75793492 8.01293945 21.68017578 C5.77015067 20.86851409 3.58747939 19.97259605 1.3984375 19.02587891 C0.64884766 18.72552734 -0.10074219 18.42517578 -0.87304688 18.11572266 C-4.79513219 16.46837672 -7.73770667 15.21290413 -9.7890625 11.27587891 C-10.34372816 7.55169521 -10.0359593 5.74909777 -8.2890625 2.40087891 C-5.37900132 -0.0726731 -3.73698169 -0.10446562 0 0 Z " fill="#FADB66" transform="translate(43.7890625,180.72412109375)"/>
<path d="M0 0 C3.81980946 1.02316325 5.29661051 1.67648355 7.5 4.9375 C8.18144286 8.00399289 8.05783509 9.85836923 6.60546875 12.66796875 C1.81886232 19.21882287 -6.211664 22.77156765 -13.98046875 24.484375 C-17.58174293 24.72761303 -19.25492172 24.14581654 -22 21.8125 C-23.75584708 18.44712644 -24.13656938 16.67734509 -23.5 12.9375 C-20.62473915 9.47904944 -17.53921945 7.76838412 -13.5 5.875 C-9.23240134 3.87239389 -9.23240134 3.87239389 -5.34375 1.25 C-3.5 -0.0625 -3.5 -0.0625 0 0 Z " fill="#FAEF84" transform="translate(281.5,352.0625)"/>
<path d="M0 0 C0.7115625 -0.02384766 1.423125 -0.04769531 2.15625 -0.07226562 C5.94317229 -0.06166789 7.66976903 0.26168023 10.5 2.83984375 C12.01096797 5.58240801 12.47505158 6.65904619 12 9.6875 C11.9175 10.35007812 11.835 11.01265625 11.75 11.6953125 C10.68069785 14.35742931 9.50994412 15.18810656 7 16.5625 C3.94140625 16.9609375 3.94140625 16.9609375 0.5625 16.9375 C-0.54996094 16.94523437 -1.66242188 16.95296875 -2.80859375 16.9609375 C-6.58424751 16.48955845 -9.2873775 15.2751225 -12 12.5625 C-12.58542458 5.42032008 -12.58542458 5.42032008 -10.48046875 2.3359375 C-7.07920316 -0.09583349 -4.02929735 -0.06204534 0 0 Z " fill="#FDDB63" transform="translate(409,115.4375)"/>
<path d="M0 0 C3.32274404 2.45594125 4.77618008 3.9256644 5.625 8 C4.76499012 12.12804743 3.36042048 13.47968464 0 16 C-3.61779113 17.3584313 -7.12184733 18 -11 18 C-11 12.39 -11 6.78 -11 1 C-3.69230769 -0.46153846 -3.69230769 -0.46153846 0 0 Z " fill="#FBDB66" transform="translate(11,180)"/>
</svg>
